<svg xmlns="http://www.w3.org/2000/svg" viewBox="0 0 512 512">
  <rect width="512" height="512" rx="118" fill="#151515"/>
  <rect x="42" y="42" width="428" height="428" rx="96" fill="#818CF8"/>
  <path d="M148 150c0-17.7 14.3-32 32-32h172c13.3 0 24 10.7 24 24s-10.7 24-24 24H204c-4.4 0-8 3.6-8 8v62h126c13.3 0 24 10.7 24 24s-10.7 24-24 24H196v88c0 13.3-10.7 24-24 24s-24-10.7-24-24V150Z" fill="#FFFFFF"/>
  <path d="M319 328c-10.1 0-18.3-8.2-18.3-18.3 0-4.9 2-9.6 5.4-13.1l31.6-31.6-31.6-31.6c-3.5-3.5-5.4-8.2-5.4-13.1 0-10.1 8.2-18.3 18.3-18.3 4.9 0 9.6 2 13.1 5.4l44.5 44.5c7.2 7.2 7.2 18.9 0 26.1l-44.5 44.5c-3.5 3.5-8.2 5.5-13.1 5.5Z" fill="#151515" opacity="0.86"/>
</svg>
